<mxfile host="app.diagrams.net" modified="2023-11-16T19:08:14.599Z" agent="Mozilla/5.0 (Macintosh; Intel Mac OS X 10_15_7) AppleWebKit/605.1.15 (KHTML, like Gecko) Version/17.0 Safari/605.1.15" version="22.1.2" etag="OCHkiIo3ABHZkqN2liO1" type="github">
  <diagram name="Page-1" id="oz48OkbVf9mWt7k1aBJp">
    <mxGraphModel>
      <root>
        <mxCell id="0" />
        <mxCell id="1" parent="0" />
      </root>
    </mxGraphModel>
  </diagram>
</mxfile>
